<?xml version="1.0" encoding="UTF-8" standalone="no"?>
<!-- Created with Inkscape (http://www.inkscape.org/) -->

<svg
   xmlns:osb="http://www.openswatchbook.org/uri/2009/osb"
   xmlns:dc="http://purl.org/dc/elements/1.1/"
   xmlns:cc="http://creativecommons.org/ns#"
   xmlns:rdf="http://www.w3.org/1999/02/22-rdf-syntax-ns#"
   xmlns:svg="http://www.w3.org/2000/svg"
   xmlns="http://www.w3.org/2000/svg"
   xmlns:sodipodi="http://sodipodi.sourceforge.net/DTD/sodipodi-0.dtd"
   xmlns:inkscape="http://www.inkscape.org/namespaces/inkscape"
   version="1.1"
   id="svg99"
   width="64"
   height="64"
   viewBox="0 0 64 64"
   sodipodi:docname="lenmus-logo-64.svg"
   inkscape:version="0.92.3 (2405546, 2018-03-11)">
  <metadata
     id="metadata105">
    <rdf:RDF>
      <cc:Work
         rdf:about="">
        <dc:format>image/svg+xml</dc:format>
        <dc:type
           rdf:resource="http://purl.org/dc/dcmitype/StillImage" />
        <dc:title></dc:title>
      </cc:Work>
    </rdf:RDF>
  </metadata>
  <defs
     id="defs103">
    <linearGradient
       id="linearGradient2356"
       osb:paint="solid">
      <stop
         style="stop-color:#000000;stop-opacity:1;"
         offset="0"
         id="stop2354" />
    </linearGradient>
  </defs>
  <sodipodi:namedview
     pagecolor="#ffffff"
     bordercolor="#666666"
     borderopacity="1"
     objecttolerance="10"
     gridtolerance="10"
     guidetolerance="10"
     inkscape:pageopacity="0"
     inkscape:pageshadow="2"
     inkscape:window-width="1920"
     inkscape:window-height="952"
     id="namedview101"
     showgrid="false"
     inkscape:zoom="4.7950679"
     inkscape:cx="9.2836474"
     inkscape:cy="7.4002907"
     inkscape:window-x="0"
     inkscape:window-y="0"
     inkscape:window-maximized="0"
     inkscape:current-layer="svg99"
     inkscape:snap-text-baseline="false" />
  <rect
     style="display:inline;opacity:0.98000004;fill:#7f8adc;fill-opacity:1;stroke:#7f8adc;stroke-width:3.807935;stroke-miterlimit:4;stroke-dasharray:none;stroke-opacity:1"
     id="rect4554"
     width="60.192066"
     height="25.257576"
     x="1.9039675"
     y="36.838398" />
  <path
     style="display:inline;fill:#000000;fill-opacity:1;stroke-width:0.98609346"
     d="M 23.56373,50.346974 C 9.4275195,48.09234 0.58885386,37.522821 5.9563355,28.420474 10.129332,21.343658 18.288215,17.32596 31.701252,17.32596 c 10.768641,0 17.047217,2.748927 22.427852,6.876458 9.947957,7.631203 4.202908,21.221395 -9.815324,25.140472 -5.508944,1.540186 -14.623929,1.981271 -20.75005,1.004084 z M 39.525536,46.54063 c 1.754178,-1.467354 2.307526,-3.132635 2.645704,-7.962239 0.786684,-11.235596 -5.538922,-19.915335 -13.75653,-18.876344 -4.993779,0.631426 -6.594365,2.499812 -7.136695,8.330668 -0.996741,10.716158 4.82502,20.36337 12.288532,20.36337 2.195199,0 4.657439,-0.766644 5.958989,-1.855455 z"
     id="path4541"
     inkscape:connector-curvature="0"
     sodipodi:nodetypes="ssssssssssss" />
  <path
     style="display:inline;fill:#ffffff;fill-opacity:1;stroke:none;stroke-width:3.75082803"
     inkscape:connector-curvature="0"
     id="path843"
     d="m 20.483516,57.476396 0.317421,0.423174 q -2.35625,2.240776 -4.039288,2.240776 -0.68286,0 -1.048312,-0.461576 -0.355843,-0.461628 -0.355843,-1.481087 0,-2.058113 1.250266,-4.097044 1.404123,-2.317717 3.356457,-2.317717 0.682824,0 1.038664,0.346208 0.365451,0.336889 0.365451,0.932802 0,0.625151 -0.432754,1.231098 -0.432779,0.605871 -1.548399,1.259802 -0.55781,0.31775 -2.385108,1.144513 -0.08652,0.519336 -0.08652,0.990556 0,0.682819 0.211568,0.95214 0.221215,0.269088 0.634745,0.269088 0.394298,0 0.865572,-0.221682 0.634738,-0.298633 1.856142,-1.211781 z m -3.36607,-1.394487 q 1.54841,-0.692473 2.327422,-1.49072 0.528907,-0.557821 0.528907,-1.105999 0,-0.413581 -0.221199,-0.653966 -0.211616,-0.24985 -0.557798,-0.24985 -0.35584,0 -0.692454,0.269173 -0.452017,0.355996 -0.759771,1.077126 -0.4424,1.057912 -0.625128,2.154267 z" />
  <path
     style="display:inline;fill:#ffffff;fill-opacity:1;stroke:none;stroke-width:3.75082803"
     inkscape:connector-curvature="0"
     id="path840"
     d="m 21.118711,53.998549 -0.327022,-0.336892 q 1.231027,-1.173319 1.961953,-1.557964 0.730918,-0.384661 1.250263,-0.384661 0.201949,0 0.317374,0.08663 0.11527,0.08675 0.11527,0.2023 0,0.08681 -0.04816,0.307695 l -0.432719,1.933087 q 0.980986,-1.086796 2.462032,-2.029291 0.788633,-0.490473 1.298338,-0.490473 0.375068,0 0.586658,0.240779 0.211415,0.240817 0.211415,0.692444 0,0.298651 -0.08656,0.67321 -0.153717,0.625135 -0.807862,2.721722 -0.615513,1.961937 -0.615513,2.606289 0,0.192185 0.05762,0.288418 0.05761,0.09606 0.163422,0.09606 0.278937,0 0.875176,-0.538558 0.423153,-0.384735 0.846333,-0.711723 l 0.240451,0.346201 q -0.884803,0.980892 -1.836938,1.57723 -0.605905,0.384683 -1.000189,0.384683 -0.365487,0 -0.567424,-0.269126 -0.201951,-0.260026 -0.201951,-0.855922 0,-0.855934 1.067525,-4.260472 0.326983,-1.211781 0.326983,-1.413748 0,-0.298631 -0.355849,-0.298631 -0.384697,0 -0.990575,0.403958 -0.903974,0.596186 -1.509887,1.404018 -0.384692,0.519395 -0.644355,1.654265 l -0.778851,3.356344 h -1.43299 q 0.403937,-1.442609 0.702079,-2.76023 l 0.85593,-3.654485 q 0.04807,-0.221717 0.04807,-0.317742 0,-0.260126 -0.192225,-0.260126 -0.153764,0 -0.4424,0.202383 -0.59628,0.394377 -1.115625,0.961702 z" />
  <path
     style="display:inline;fill:#ffffff;fill-opacity:1;stroke:none;stroke-width:3.75082803"
     inkscape:connector-curvature="0"
     id="path837"
     d="M 35.666708,60.240155 34.897279,49.891893 q -0.24984,2.61592 -0.923241,4.885635 -0.673217,2.260061 -1.529155,3.500743 -0.855933,1.230957 -1.750351,1.731154 -0.894434,0.500058 -1.769602,0.500058 -0.52894,0 -0.817489,-0.221725 -0.278914,-0.211353 -0.278914,-0.51933 0,-0.260065 0.201926,-0.45202 0.211455,-0.192165 0.528974,-0.192165 0.230675,0 0.663595,0.105905 0.394325,0.106193 0.653984,0.106193 0.452016,0 0.942507,-0.336942 0.740507,-0.500063 1.461823,-1.788858 0.730903,-1.29828 1.298319,-3.606479 0.577071,-2.317753 0.721301,-4.520148 -2.183111,0 -3.548778,1.086788 -1.086791,0.865553 -1.086791,1.933074 0,0.471207 0.519356,1.13483 0.278931,0.355933 0.278931,0.577069 0,0.249844 -0.163442,0.413541 -0.153738,0.163953 -0.375114,0.163953 -0.375049,0 -0.663575,-0.423164 -0.394342,-0.567445 -0.394342,-1.34642 0,-1.096381 0.730961,-2.09658 0.740505,-1.00986 2.038875,-1.529167 1.307961,-0.528995 3.058318,-0.538621 0.942508,0 1.509925,-0.172927 -0.02689,0.865532 -0.02689,0.932814 0,0.0869 0.02689,0.39439 l 0.56741,7.309128 q 2.317788,-4.048808 4.529812,-6.664775 1.567576,-1.856114 2.731313,-2.510124 -0.663609,1.827275 -1.423387,4.818333 l -1.173311,4.616318 q -0.09601,0.384652 -0.260055,1.125229 l -0.230581,1.029004 q 0.730944,0.172963 1.336819,0.172963 0.49046,0 1.048309,-0.115282 l -0.125158,0.557831 q -0.490495,0.08657 -0.75975,0.08657 -0.394327,0 -1.134871,-0.08657 -0.605911,-0.07682 -1.077155,-0.07682 -0.500069,0 -1.13484,0.192159 0.528951,-1.384953 1.105997,-3.721992 l 0.740539,-2.942971 q 0.471228,-1.904192 0.817465,-2.615877 -0.769381,0.875156 -2.375452,3.212212 -1.288756,1.884954 -2.885214,4.77014 z" />
  <path
     style="display:inline;fill:#ffffff;fill-opacity:1;stroke:none;stroke-width:3.75082803"
     inkscape:connector-curvature="0"
     id="path834"
     d="m 50.113839,52.105519 h 1.365687 l -0.904037,3.356394 q -0.798234,2.923753 -0.798234,3.32769 0,0.182645 0.08678,0.279206 0.08668,0.09604 0.192108,0.09604 0.163887,0 0.38469,-0.144816 0.317766,-0.221095 1.202189,-1.115551 l 0.317708,0.356038 q -1.933065,2.010042 -2.846713,2.010042 -0.307637,0 -0.528989,-0.24075 -0.211332,-0.230597 -0.211332,-0.663602 0,-0.500044 0.211332,-1.336801 -0.855937,0.980961 -2.11583,1.721493 -0.836682,0.490513 -1.452191,0.490513 -0.336896,0 -0.528929,-0.22171 -0.192092,-0.221584 -0.192092,-0.70207 0,-0.375267 0.08683,-0.807844 0.125054,-0.605916 0.634717,-2.433185 0.644384,-2.317796 0.644384,-2.779447 0,-0.26909 -0.192082,-0.26909 -0.172873,0 -0.471245,0.183099 -0.298721,0.172939 -1.01948,0.855916 l -0.423311,-0.336782 q 1.288713,-1.154039 1.961919,-1.509879 0.682857,-0.36544 1.096392,-0.36544 0.230578,0 0.375219,0.172919 0.144504,0.16375 0.144504,0.519339 0,0.663564 -0.692448,3.260286 -0.615519,2.336982 -0.615519,2.663992 0,0.202263 0.125337,0.346206 0.134441,0.144526 0.288375,0.144526 0.538555,0 1.529152,-0.884892 0.990577,-0.894322 1.298356,-2.029189 z" />
  <path
     style="display:inline;fill:#ffffff;fill-opacity:1;stroke:none;stroke-width:3.75082803"
     inkscape:connector-curvature="0"
     id="path831"
     d="m 55.461248,51.836212 q 0.855943,0 1.317607,0.33688 0.471194,0.326942 0.471194,0.759788 0,0.26016 -0.202302,0.452078 -0.192142,0.192164 -0.471214,0.192164 -0.183102,0 -0.317738,-0.07686 -0.134463,-0.08661 -0.384655,-0.413511 -0.471221,-0.625197 -0.932881,-0.625197 -0.394362,0 -0.702075,0.307662 -0.298617,0.298654 -0.298617,0.750114 0,0.39438 0.192119,0.769384 0.192111,0.365427 0.971367,1.192569 1.06752,1.134859 1.06752,2.154324 0,1.019379 -0.865556,1.788814 -0.865595,0.759772 -2.231234,0.759772 -1.144471,0 -1.702305,-0.461669 -0.557834,-0.471259 -0.557834,-1.154092 0,-0.336879 0.211399,-0.557771 0.211385,-0.221537 0.519313,-0.221537 0.2691,0 0.461653,0.183107 0.192113,0.172916 0.192113,0.413549 0,0.09604 -0.01474,0.249851 -0.002,0.125086 -0.002,0.211377 0,0.31774 0.269146,0.538647 0.260005,0.221029 0.711699,0.221029 0.519315,0 0.913601,-0.172943 0.394389,-0.183152 0.615539,-0.53866 0.22145,-0.365421 0.22145,-0.721286 0,-0.346186 -0.211366,-0.692458 -0.202167,-0.346192 -0.923177,-1.144443 -1.000219,-1.115548 -1.000219,-2.14465 0,-0.942538 0.759774,-1.644617 0.759762,-0.711678 1.933082,-0.711678 z" />
  <path
     inkscape:connector-curvature="0"
     id="path846"
     style="display:inline;fill:#ffffff;fill-opacity:1;stroke:none;stroke-width:3.75082803"
     d="m 4.8458445,59.999782 0.1154848,-0.519376 q 1.0098192,-0.192173 1.3464391,-0.442336 0.3462027,-0.249875 0.615512,-0.884872 0.278929,-0.644331 0.7501398,-2.644726 0.625143,-2.644818 1.1348506,-3.808526 0.7790242,-1.750362 1.9331062,-2.596661 1.163667,-0.846349 2.346621,-0.846349 0.759785,0 1.279113,0.384731 0.51935,0.384695 0.51935,0.798239 0,0.2306 -0.163502,0.394332 -0.153846,0.163776 -0.375051,0.163776 -0.288555,0 -0.702069,-0.375254 -0.46163,-0.403885 -0.721304,-0.528879 -0.250084,-0.125312 -0.490477,-0.125312 -0.278888,0 -0.548201,0.153713 -0.375058,0.211365 -0.807842,0.807845 -0.423178,0.586673 -0.884819,1.750387 -0.2981771,0.788593 -0.7597694,2.596633 -0.7212982,2.87564 -1.0963632,3.818129 -0.2693317,0.673228 -0.6539933,1.115588 1.375268,-0.307693 2.1927557,-0.307693 0.5097392,0 0.9425092,0.06743 0.432761,0.05762 1.509917,0.307666 0.932887,0.221383 1.307978,0.221383 0.365449,0 0.615501,-0.221383 0.259641,-0.230602 0.259641,-0.519403 0,-0.183182 -0.134636,-0.509647 -0.12499,-0.307663 -0.12499,-0.49056 0,-0.260134 0.15386,-0.403925 0.153857,-0.153705 0.403932,-0.153705 0.288548,0 0.490476,0.260058 0.201992,0.249839 0.201992,0.692403 0,0.836738 -0.692471,1.442655 -0.692425,0.605849 -1.875361,0.605849 -0.586661,0 -1.509916,-0.08659 -3.1160409,-0.279239 -4.0777709,-0.279239 -1.413755,0 -2.5005262,0.164062 z" />
</svg>
