<?xml version="1.0" encoding="UTF-8" standalone="no"?>
<!-- Created with Inkscape (http://www.inkscape.org/) -->

<svg
   xmlns:osb="http://www.openswatchbook.org/uri/2009/osb"
   xmlns:dc="http://purl.org/dc/elements/1.1/"
   xmlns:cc="http://creativecommons.org/ns#"
   xmlns:rdf="http://www.w3.org/1999/02/22-rdf-syntax-ns#"
   xmlns:svg="http://www.w3.org/2000/svg"
   xmlns="http://www.w3.org/2000/svg"
   xmlns:sodipodi="http://sodipodi.sourceforge.net/DTD/sodipodi-0.dtd"
   xmlns:inkscape="http://www.inkscape.org/namespaces/inkscape"
   version="1.1"
   id="svg99"
   width="16"
   height="16"
   viewBox="0 0 16 16"
   sodipodi:docname="lenmus-logo.svg"
   inkscape:version="0.92.3 (2405546, 2018-03-11)">
  <metadata
     id="metadata105">
    <rdf:RDF>
      <cc:Work
         rdf:about="">
        <dc:format>image/svg+xml</dc:format>
        <dc:type
           rdf:resource="http://purl.org/dc/dcmitype/StillImage" />
        <dc:title></dc:title>
      </cc:Work>
    </rdf:RDF>
  </metadata>
  <defs
     id="defs103">
    <linearGradient
       id="linearGradient2356"
       osb:paint="solid">
      <stop
         style="stop-color:#000000;stop-opacity:1;"
         offset="0"
         id="stop2354" />
    </linearGradient>
  </defs>
  <sodipodi:namedview
     pagecolor="#ffffff"
     bordercolor="#666666"
     borderopacity="1"
     objecttolerance="10"
     gridtolerance="10"
     guidetolerance="10"
     inkscape:pageopacity="0"
     inkscape:pageshadow="2"
     inkscape:window-width="1920"
     inkscape:window-height="952"
     id="namedview101"
     showgrid="false"
     inkscape:zoom="19.180272"
     inkscape:cx="9.2836474"
     inkscape:cy="7.4002907"
     inkscape:window-x="0"
     inkscape:window-y="0"
     inkscape:window-maximized="0"
     inkscape:current-layer="svg99"
     inkscape:snap-text-baseline="false" />
  <rect
     style="display:inline;opacity:0.98000004;fill:#7f8adc;fill-opacity:1;stroke:#7f8adc;stroke-width:0.95198488;stroke-miterlimit:4;stroke-dasharray:none;stroke-opacity:1"
     id="rect4554"
     width="15.048016"
     height="6.3144064"
     x="0.47599244"
     y="9.2096014" />
  <path
     style="display:inline;fill:#000000;fill-opacity:1;stroke-width:0.2465235"
     d="M 5.8909353,12.586748 C 2.3568836,12.023086 0.14721351,9.3807033 1.489084,7.1051039 2.5323312,5.3359224 4.5720558,4.3314863 7.9253152,4.3314863 c 2.6921648,0 4.2618048,0.6872282 5.6069638,1.7191185 2.486989,1.9078004 1.050726,5.3053432 -2.453831,6.2851182 -1.3772369,0.385045 -3.655984,0.495311 -5.1875127,0.251025 z M 9.881387,11.635155 C 10.319928,11.268314 10.458271,10.851994 10.542813,9.6445909 10.739481,6.8356963 9.1580861,4.6657618 7.1036752,4.9255171 5.8552355,5.0833696 5.4550898,5.5504629 5.3195086,7.008176 c -0.2491916,2.6790419 1.2062485,5.090845 3.0721278,5.090845 0.5487997,0 1.1643587,-0.191666 1.4897506,-0.463866 z"
     id="path4541"
     inkscape:connector-curvature="0"
     sodipodi:nodetypes="ssssssssssss" />
  <path
     style="display:inline;fill:#ffffff;fill-opacity:1;stroke:none;stroke-width:0.93770713"
     inkscape:connector-curvature="0"
     id="path843"
     d="m 5.120886,14.369098 0.079342,0.105794 q -0.5890605,0.560194 -1.0098223,0.560194 -0.1707119,0 -0.2620769,-0.115394 -0.088961,-0.115408 -0.088961,-0.370271 0,-0.514528 0.3125699,-1.024259 0.351032,-0.579432 0.8391098,-0.579432 0.1707103,0 0.2596701,0.08657 0.091366,0.08421 0.091366,0.233203 0,0.156288 -0.1081946,0.307772 -0.1081912,0.151467 -0.3871014,0.314951 -0.1394473,0.07942 -0.5962742,0.286126 -0.021625,0.129839 -0.021625,0.247642 0,0.170707 0.052894,0.238037 0.055303,0.06731 0.1586873,0.06731 0.098575,0 0.2163907,-0.0554 0.1586857,-0.07464 0.464038,-0.302948 z M 4.2793649,14.020466 q 0.3870982,-0.173113 0.5818536,-0.37267 0.1322304,-0.139452 0.1322304,-0.276502 0,-0.103393 -0.055303,-0.163489 -0.052901,-0.0625 -0.1394482,-0.0625 -0.088961,0 -0.1731144,0.06733 -0.1130033,0.08899 -0.189944,0.269282 -0.1106016,0.264478 -0.1562819,0.538577 z" />
  <path
     style="display:inline;fill:#ffffff;fill-opacity:1;stroke:none;stroke-width:0.93770713"
     inkscape:connector-curvature="0"
     id="path840"
     d="m 5.2796755,13.499636 -0.081747,-0.08421 q 0.3077573,-0.293335 0.4904867,-0.389497 0.1827303,-0.09618 0.3125607,-0.09618 0.050491,0 0.079342,0.02167 0.02884,0.02168 0.02884,0.05057 0,0.0217 -0.01205,0.07696 l -0.108184,0.483262 q 0.2452453,-0.271699 0.6155104,-0.507319 0.1971579,-0.122624 0.3245845,-0.122624 0.093768,0 0.1466664,0.06019 0.052875,0.06019 0.052875,0.173104 0,0.07464 -0.021659,0.168306 -0.038459,0.156286 -0.201968,0.680432 -0.1538793,0.490482 -0.1538793,0.65157 0,0.04809 0.014421,0.07214 0.014413,0.02405 0.040862,0.02405 0.069729,0 0.2187926,-0.134637 0.1057897,-0.09619 0.2115837,-0.177927 l 0.060113,0.08657 q -0.2212025,0.245226 -0.459235,0.394299 -0.1514755,0.09618 -0.250047,0.09618 -0.091374,0 -0.1418558,-0.06732 -0.050503,-0.06498 -0.050503,-0.213987 0,-0.213983 0.2668819,-1.065118 0.081748,-0.302947 0.081748,-0.353437 0,-0.07463 -0.088963,-0.07463 -0.096174,0 -0.2476464,0.100977 -0.2259969,0.149052 -0.3774742,0.351015 -0.096174,0.129839 -0.1610922,0.413557 l -0.1947216,0.839052 h -0.358241 q 0.1009848,-0.360667 0.1755196,-0.69007 L 5.705183,13.352961 q 0.011998,-0.05539 0.011998,-0.07943 0,-0.065 -0.048067,-0.065 -0.038464,0 -0.1105985,0.05058 -0.1490689,0.09858 -0.2789026,0.240423 z" />
  <path
     style="display:inline;fill:#ffffff;fill-opacity:1;stroke:none;stroke-width:0.93770713"
     inkscape:connector-curvature="0"
     id="path837"
     d="M 8.916677,15.060039 8.7243263,12.472976 q -0.062488,0.653984 -0.2308173,1.221405 -0.1682991,0.565017 -0.3822895,0.875187 -0.2139825,0.307741 -0.4375843,0.432788 -0.2236069,0.125015 -0.4424009,0.125015 -0.1322373,0 -0.204372,-0.05539 -0.069729,-0.05288 -0.069729,-0.129832 0,-0.06498 0.050489,-0.113004 0.052874,-0.04809 0.1322371,-0.04809 0.057692,0 0.1658984,0.02645 0.098581,0.02653 0.1634993,0.02653 0.1130015,0 0.2356273,-0.08422 0.1851305,-0.12502 0.3654577,-0.447212 0.1827264,-0.324575 0.32458,-0.901625 0.1442674,-0.579438 0.1803245,-1.130038 -0.5457807,0 -0.8871973,0.271699 -0.2716902,0.216383 -0.2716902,0.483264 0,0.117804 0.1298349,0.283708 0.069731,0.08897 0.069731,0.144264 0,0.0625 -0.040862,0.103387 -0.03846,0.04096 -0.093773,0.04096 -0.093767,0 -0.165897,-0.105791 -0.098582,-0.141856 -0.098582,-0.336601 0,-0.274096 0.1827319,-0.524146 0.1851365,-0.252463 0.5097227,-0.382294 0.3269935,-0.132244 0.7645877,-0.13465 0.2356225,0 0.3774775,-0.04328 -0.00674,0.216388 -0.00674,0.233211 0,0.02172 0.00674,0.09859 l 0.1418479,1.827293 q 0.5794486,-1.012208 1.1324543,-1.666196 0.391895,-0.464029 0.682822,-0.627528 -0.165897,0.456817 -0.355844,1.204584 l -0.293328,1.154082 q -0.02402,0.09617 -0.06498,0.281306 l -0.05767,0.257256 q 0.182735,0.04329 0.334208,0.04329 0.122621,0 0.262074,-0.02886 l -0.03126,0.139448 q -0.122627,0.02165 -0.18994,0.02165 -0.09858,0 -0.283722,-0.02165 -0.151471,-0.01922 -0.269285,-0.01922 -0.12502,0 -0.2837124,0.04808 0.1322404,-0.346232 0.2764984,-0.930492 l 0.185129,-0.735743 q 0.117813,-0.476052 0.204372,-0.653973 -0.192349,0.218794 -0.59387,0.803057 -0.322185,0.471243 -0.7213019,1.192538 z" />
  <path
     style="display:inline;fill:#ffffff;fill-opacity:1;stroke:none;stroke-width:0.93770713"
     inkscape:connector-curvature="0"
     id="path834"
     d="m 12.52846,13.026378 h 0.34142 l -0.226001,0.839103 q -0.199569,0.730931 -0.199569,0.83192 0,0.04565 0.02169,0.0698 0.02167,0.02404 0.04806,0.02404 0.04095,0 0.09618,-0.03617 0.07943,-0.0553 0.300549,-0.278892 l 0.07941,0.08899 q -0.483261,0.502516 -0.711679,0.502516 -0.07694,0 -0.132239,-0.06019 -0.05286,-0.05769 -0.05286,-0.1659 0,-0.125015 0.05286,-0.334197 -0.213991,0.245237 -0.528958,0.430369 -0.209175,0.12263 -0.363055,0.12263 -0.08421,0 -0.132232,-0.05539 -0.04805,-0.05537 -0.04805,-0.175517 0,-0.09379 0.02171,-0.201969 0.03125,-0.151472 0.158683,-0.608296 0.161093,-0.579447 0.161093,-0.694856 0,-0.06731 -0.04805,-0.06731 -0.04324,0 -0.117812,0.04577 -0.07466,0.04328 -0.254869,0.213982 l -0.105836,-0.08418 q 0.322178,-0.288516 0.490482,-0.377476 0.170714,-0.09137 0.274095,-0.09137 0.05768,0 0.09378,0.04327 0.03612,0.0409 0.03612,0.12983 0,0.165898 -0.17311,0.815073 -0.153881,0.584252 -0.153881,0.666003 0,0.05054 0.03131,0.08657 0.03363,0.03611 0.07212,0.03611 0.134645,0 0.38229,-0.221218 0.247646,-0.223586 0.324587,-0.507301 z" />
  <path
     style="display:inline;fill:#ffffff;fill-opacity:1;stroke:none;stroke-width:0.93770713"
     inkscape:connector-curvature="0"
     id="path831"
     d="m 13.865318,12.959053 q 0.213982,0 0.32939,0.08421 0.117811,0.08176 0.117811,0.189938 0,0.06501 -0.05055,0.113014 -0.04806,0.04809 -0.117811,0.04809 -0.04577,0 -0.07942,-0.01926 -0.03364,-0.02167 -0.09617,-0.103389 -0.117808,-0.156284 -0.233225,-0.156284 -0.09858,0 -0.175517,0.07695 -0.07463,0.07464 -0.07463,0.187525 0,0.09859 0.04806,0.192353 0.04806,0.09137 0.242842,0.298135 0.26688,0.283715 0.26688,0.53858 0,0.254848 -0.216389,0.447204 -0.216393,0.189947 -0.557809,0.189947 -0.286117,0 -0.425572,-0.115422 -0.139451,-0.117805 -0.139451,-0.28852 0,-0.0842 0.05288,-0.139445 0.05288,-0.05537 0.129835,-0.05537 0.06731,0 0.115407,0.04577 0.04806,0.04327 0.04806,0.103386 0,0.02404 -0.0039,0.0625 -0.002,0.03128 -0.002,0.05289 0,0.07942 0.06733,0.134657 0.06498,0.05527 0.177922,0.05527 0.129831,0 0.228403,-0.04328 0.09859,-0.04577 0.153883,-0.134659 0.05534,-0.09137 0.05534,-0.180323 0,-0.08657 -0.05288,-0.173115 -0.05053,-0.08657 -0.230796,-0.286112 -0.250052,-0.278888 -0.250052,-0.536162 0,-0.235632 0.189944,-0.411151 0.189938,-0.177918 0.483268,-0.177918 z" />
  <path
     inkscape:connector-curvature="0"
     id="path846"
     style="display:inline;fill:#ffffff;fill-opacity:1;stroke:none;stroke-width:0.93770713"
     d="m 1.2114611,14.999944 0.028869,-0.129841 q 0.2524557,-0.04809 0.3366107,-0.110595 0.086549,-0.0625 0.1538775,-0.221211 0.06973,-0.161084 0.1875354,-0.661188 0.1562861,-0.661188 0.283713,-0.952119 0.1947536,-0.437593 0.4832745,-0.649169 0.2909206,-0.211579 0.5866581,-0.211579 0.189944,0 0.3197783,0.09618 0.1298338,0.09618 0.1298338,0.199563 0,0.05769 -0.04087,0.09857 -0.038467,0.04091 -0.093764,0.04091 -0.072137,0 -0.1755179,-0.09379 -0.1154092,-0.100976 -0.180326,-0.132224 -0.062522,-0.0313 -0.1226216,-0.0313 -0.069722,0 -0.1370484,0.03848 -0.093766,0.05288 -0.201963,0.201963 -0.1057926,0.146667 -0.2212018,0.437596 -0.074541,0.197149 -0.1899437,0.649158 -0.1803242,0.718908 -0.2740906,0.954528 -0.067332,0.16831 -0.1634978,0.278904 0.3438171,-0.07696 0.5481883,-0.07696 0.1274326,0 0.2356277,0.01688 0.1081937,0.01442 0.3774822,0.07695 0.2332201,0.05531 0.3269923,0.05531 0.091363,0 0.1538742,-0.05531 0.064913,-0.05769 0.064913,-0.129843 0,-0.04578 -0.033666,-0.12742 -0.031252,-0.07695 -0.031252,-0.122635 0,-0.06501 0.038467,-0.100984 0.038467,-0.03847 0.1009871,-0.03847 0.072129,0 0.1226171,0.06499 0.050496,0.0625 0.050496,0.173106 0,0.209184 -0.1731157,0.360662 -0.1731085,0.151464 -0.468843,0.151464 -0.1466647,0 -0.3774804,-0.02165 -0.7790075,-0.06979 -1.0194402,-0.06979 -0.3534388,0 -0.6251321,0.04098 z" />
</svg>
