<svg height="512pt" viewBox="0 -32 512 512" width="512pt" xmlns="http://www.w3.org/2000/svg"><path d="m253.078125 267.871094c0 40.429687-32.777344 73.207031-73.207031 73.207031-40.429688 0-73.207032-32.777344-73.207032-73.207031 0-40.429688 32.777344-73.207032 73.207032-73.207032 40.429687 0 73.207031 32.777344 73.207031 73.207032zm0 0" fill="#ffe477"/><path d="m179.90625 305.5625v-75.378906l75.378906 37.6875zm0 0" fill="#ffb655"/><path d="m352.246094 293.074219v-50.402344l-48.386719-8.007813c-2.933594-10.972656-7.28125-21.367187-12.839844-30.972656l28.558594-39.882812-35.640625-35.644532-39.882812 28.5625c-9.605469-5.558593-20-9.910156-30.976563-12.839843l-8.003906-48.386719h-50.402344l-8.007813 48.386719c-10.972656 2.929687-21.367187 7.28125-30.972656 12.839843l-39.882812-28.5625-35.644532 35.644532 28.5625 39.882812c-5.558593 9.605469-9.910156 20-12.839843 30.972656l-48.386719 8.007813v50.402344l48.386719 8.003906c2.929687 10.976563 7.28125 21.371094 12.839843 30.976563l-28.5625 39.882812 35.644532 35.640625 39.882812-28.558594c9.605469 5.558594 20 9.910157 30.972656 12.839844l8.007813 48.386719h50.402344l8.003906-48.386719c10.976563-2.933594 21.371094-7.28125 30.976563-12.839844l39.882812 28.558594 35.640625-35.640625-28.558594-39.882812c5.558594-9.609376 9.910157-20 12.839844-30.976563zm-172.375 48.003906c-40.429688 0-73.207032-32.773437-73.207032-73.207031 0-40.429688 32.777344-73.207032 73.207032-73.207032 40.433594 0 73.207031 32.777344 73.207031 73.207032 0 40.429687-32.773437 73.207031-73.207031 73.207031zm0 0" fill="#ff8243"/><path d="m149.90625 305.5625v-75.378906l75.378906 37.6875zm0 0" fill="#57a4ff"/><path d="m504.5 126.800781v-30.4375l-29.21875-4.832031c-1.769531-6.625-4.394531-12.902344-7.75-18.703125l17.246094-24.082031-21.523438-21.523438-24.082031 17.246094c-5.800781-3.355469-12.078125-5.980469-18.703125-7.75l-4.832031-29.21875h-30.4375l-4.832031 29.21875c-6.628907 1.769531-12.902344 4.394531-18.703126 7.75l-24.085937-17.246094-21.519531 21.523438 17.246094 24.082031c-3.359376 5.800781-5.984376 12.078125-7.753907 18.703125l-29.214843 4.832031v30.4375l29.214843 4.832031c1.769531 6.628907 4.394531 12.902344 7.753907 18.703126l-17.246094 24.085937 21.519531 21.519531 24.085937-17.246094c5.800782 3.359376 12.074219 5.984376 18.703126 7.753907l4.832031 29.21875h30.4375l4.832031-29.21875c6.625-1.769531 12.902344-4.394531 18.703125-7.753907l24.082031 17.246094 21.523438-21.519531-17.246094-24.085937c3.355469-5.800782 5.980469-12.074219 7.75-18.703126zm-104.082031 8.589844c-13.128907 0-23.8125-10.679687-23.8125-23.808594 0-13.128906 10.683593-23.808593 23.8125-23.808593 13.128906 0 23.808593 10.679687 23.808593 23.808593 0 13.128907-10.679687 23.808594-23.808593 23.808594zm0 0" fill="#d7fc7e"/><path d="m136.664062 267.871094c0-35.289063 24.972657-64.746094 58.207032-71.667969-4.839844-1.007813-9.859375-1.539063-15-1.539063-40.429688 0-73.207032 32.777344-73.207032 73.207032 0 40.433594 32.777344 73.207031 73.207032 73.207031 5.140625 0 10.160156-.53125 15-1.539063-33.234375-6.921874-58.207032-36.378906-58.207032-71.667968zm0 0" fill="#ffb655"/><g fill="#ed4726"><path d="m283.078125 267.871094c0-40.429688-32.773437-73.207032-73.207031-73.207032-5.140625 0-10.15625.53125-15 1.539063 33.238281 6.921875 58.207031 36.378906 58.207031 71.667969 0 35.289062-24.96875 64.746094-58.207031 71.667968 4.84375 1.007813 9.859375 1.539063 15 1.539063 40.433594 0 73.207031-32.773437 73.207031-73.207031zm0 0"/><path d="m70.164062 371.9375 28.5625-39.882812c-5.558593-9.609376-9.910156-20-12.839843-30.976563l-48.386719-8.003906v-50.402344l48.386719-8.007813c2.929687-10.972656 7.28125-21.367187 12.839843-30.972656l-28.5625-39.882812 23.125-23.125-17.480468-12.519532-35.644532 35.644532 28.5625 39.882812c-5.558593 9.605469-9.910156 20-12.839843 30.972656l-48.386719 8.007813v50.402344l48.386719 8.003906c2.929687 10.976563 7.28125 21.367187 12.839843 30.976563l-28.5625 39.882812 35.644532 35.640625 17.480468-12.515625zm0 0"/><path d="m145.691406 379.019531-12.023437 8.609375c4.230469 1.632813 8.566406 3.046875 12.996093 4.230469l8.007813 48.386719h30l-8.007813-48.386719c-10.972656-2.929687-21.367187-7.28125-30.972656-12.839844zm0 0"/></g><path d="m169.90625 240.183594-20-10v75.378906l20-10zm0 0" fill="#006df0"/><path d="m391.660156 44.46875c5.804688-3.355469 12.078125-5.984375 18.703125-7.753906l4.835938-29.214844h-30l-4.785157 28.914062zm0 0" fill="#55e072"/><path d="m391.660156 178.695312-11.246094 8.054688 4.785157 28.914062h30l-4.832031-29.214843c-6.628907-1.769531-12.902344-4.394531-18.707032-7.753907zm0 0" fill="#55e072"/><path d="m346.058594 174.421875 17.246094-24.085937c-3.359376-5.800782-5.984376-12.074219-7.753907-18.703126l-29.21875-4.832031v-30.4375l29.21875-4.832031c1.769531-6.625 4.394531-12.902344 7.753907-18.703125l-17.246094-24.082031 9.003906-9.003906-17.484375-12.519532-21.519531 21.523438 17.246094 24.082031c-3.359376 5.800781-5.984376 12.078125-7.753907 18.703125l-29.21875 4.832031v30.4375l29.21875 4.832031c1.769531 6.628907 4.394531 12.902344 7.753907 18.703126l-17.246094 24.085937 21.519531 21.519531 17.484375-12.515625zm0 0" fill="#55e072"/><path d="m179.871094 187.164062c-44.5 0-80.707032 36.207032-80.707032 80.707032s36.207032 80.707031 80.707032 80.707031c44.503906 0 80.707031-36.207031 80.707031-80.707031s-36.203125-80.707032-80.707031-80.707032zm0 146.414063c-36.230469 0-65.707032-29.476563-65.707032-65.707031 0-36.230469 29.476563-65.707032 65.707032-65.707032 36.230468 0 65.707031 29.476563 65.707031 65.707032 0 36.230468-29.476563 65.707031-65.707031 65.707031zm0 0"/><path d="m299.878906 204.199219 29.5-41.195313-44.636718-44.640625-41.199219 29.503907c-7.617188-4.050782-15.601563-7.359376-23.835938-9.882813l-8.269531-49.984375h-63.128906l-8.269532 49.984375c-8.234374 2.523437-16.222656 5.832031-23.839843 9.882813l-41.199219-29.503907-44.636719 44.640625 29.503907 41.195313c-4.050782 7.621093-7.359376 15.605469-9.882813 23.839843l-49.984375 8.269532v63.128906l49.984375 8.265625c2.523437 8.238281 5.832031 16.222656 9.882813 23.839844l-29.503907 41.199219 44.640625 44.636718 41.199219-29.5c7.617187 4.046875 15.601563 7.359375 23.835937 9.882813l8.269532 49.980469h63.128906l8.269531-49.980469c8.234375-2.523438 16.21875-5.835938 23.835938-9.882813l41.199219 29.5 44.640624-44.636718-29.503906-41.199219c4.050782-7.617188 7.359375-15.601563 9.882813-23.839844l49.984375-8.265625v-63.128906l-49.984375-8.269532c-2.523438-8.234374-5.832031-16.21875-9.882813-23.839843zm44.867188 82.515625-46.882813 7.753906c-1.6875 6.304688-4.585937 18.703125-13.335937 33.828125l-2.421875 4.1875 27.671875 38.648437-26.644532 26.644532-38.648437-27.675782c-5.644531 3.269532-16.496094 10.011719-33.339844 14.511719l-4.671875 1.25-7.757812 46.882813h-37.683594l-7.757812-46.882813c-17.59375-4.703125-23.949219-7.617187-38.015626-15.761719l-38.644531 27.675782-26.644531-26.644532 27.671875-38.648437c-9.140625-15.796875-11.570313-22.347656-15.757813-38.015625l-46.882812-7.753906v-37.683594l46.882812-7.757812 1.25-4.671876c4.453126-16.671874 11.078126-27.414062 14.507813-33.34375l-27.671875-38.644531 26.644531-26.648437 38.644531 27.675781c5.660157-3.277344 16.511719-10.011719 33.34375-14.507813l4.671876-1.25 7.757812-46.882812h37.683594l7.757812 46.882812c17.992188 4.804688 24.289063 7.816407 38.011719 15.757813l38.648437-27.675781 26.644532 26.648437-27.671875 38.644531c3.296875 5.699219 10.011719 16.523438 14.507812 33.34375l1.25 4.671876 46.882813 7.757812zm0 0"/><path d="m142.40625 317.695312 99.648438-49.824218-99.648438-49.824219zm15-75.375 51.105469 25.550782-51.105469 25.554687zm0 0"/><path d="m431.726562 111.582031c0-17.265625-14.046874-31.308593-31.308593-31.308593-17.265625 0-31.3125 14.042968-31.3125 31.308593s14.046875 31.308594 31.3125 31.308594c17.261719 0 31.308593-14.042969 31.308593-31.308594zm-47.621093 0c0-8.992187 7.316406-16.308593 16.3125-16.308593 8.992187 0 16.308593 7.316406 16.308593 16.308593 0 8.992188-7.316406 16.308594-16.308593 16.308594-8.992188 0-16.3125-7.316406-16.3125-16.308594zm0 0"/><path d="m338.578125 144.378906c-4.199219-7.902344-5.546875-13.800781-7.03125-19.355468l-16.585937-2.742188-2.449219 14.796875 7.199219 1.191406c1.492187 4.519531 3.378906 8.925781 5.621093 13.148438zm0 0"/><path d="m512 133.160156v-43.15625l-30.875-5.109375c-1.304688-3.945312-2.898438-7.792969-4.769531-11.507812l18.222656-25.445313-30.519531-30.519531-25.445313 18.222656c-3.714843-1.871093-7.5625-3.464843-11.507812-4.769531l-5.109375-30.875h-43.15625l-5.109375 30.875c-3.945313 1.304688-7.792969 2.898438-11.507813 4.769531l-25.449218-18.222656-30.515626 30.519531 18.222657 25.445313c-1.875 3.71875-3.46875 7.5625-4.769531 11.511719l-30.875 5.105468v22.273438h15v-9.550782l27.714843-4.585937c3.527344-13.214844 4.730469-15.484375 10.667969-25.746094l-16.359375-22.84375 12.527344-12.527343 22.847656 16.363281c11.972656-6.933594 14.414063-7.644531 25.742187-10.671875l4.585938-27.714844h17.714844l4.582031 27.714844c13.265625 3.542968 15.503906 4.742187 25.746094 10.671875l22.84375-16.363281 12.527343 12.527343-16.359374 22.84375c6.8125 11.769531 7.589843 14.214844 10.671874 25.746094l27.710938 4.585937v17.710938l-27.714844 4.585938c-3.53125 13.214843-4.730468 15.484374-10.671875 25.746093l16.359375 22.84375-12.523437 12.527344-22.847657-16.359375c-11.859374 6.863281-14.3125 7.617188-25.746093 10.671875l-4.582031 27.710937h-17.714844l-4.582032-27.710937c-13.277343-3.546875-15.527343-4.757813-25.746093-10.671875l-22.84375 16.359375-5.066407-5.066406-10.605468 10.605469 14.058594 14.0625 25.449218-18.222657c3.714844 1.875 7.5625 3.46875 11.507813 4.773438l5.109375 30.875h43.15625l5.109375-30.875c3.945312-1.304688 7.792969-2.898438 11.507812-4.773438l25.445313 18.222657 30.519531-30.515626-18.222656-25.449218c1.871093-3.714844 3.464843-7.5625 4.769531-11.507813zm0 0"/><path d="m400.414062 167.890625v-15c7.601563 0 15.027344-2.078125 21.476563-6.011719l7.8125 12.804688c-8.804687 5.371094-18.929687 8.207031-29.289063 8.207031zm38.449219-15.167969-10.246093-10.957031c3.109374-2.90625 5.742187-6.253906 7.820312-9.945313l13.070312 7.359376c-2.832031 5.03125-6.414062 9.589843-10.644531 13.542968zm15.238281-24.109375-14.296874-4.535156c1.273437-4.019531 1.921874-8.226563 1.921874-12.496094h15c0 5.8125-.882812 11.539063-2.625 17.03125zm0 0" fill="#fff"/><path d="m179.875 373.578125c-.003906 0 0 0 0 0l-.003906-15c32.773437 0 63.121094-17.824219 79.199218-46.519531l13.085938 7.332031c-18.726562 33.421875-54.089844 54.1875-92.28125 54.1875zm97.054688-63.828125-13.765626-5.960938c1.828126-4.230468 3.347657-8.628906 4.507813-13.082031l14.515625 3.777344c-1.351562 5.195313-3.125 10.332031-5.257812 15.265625zm7.429687-25.804688-14.828125-2.273437c.695312-4.535156 1.046875-9.179687 1.046875-13.800781h15c0 5.378906-.410156 10.785156-1.21875 16.074218zm0 0" fill="#fff"/></svg>