<svg height="512pt" viewBox="0 0 512 512" width="512pt" xmlns="http://www.w3.org/2000/svg"><path d="m396 284.519531h-280c-60.558594 21.78125-106 57.332031-106 97.480469 0 40.539062 42.460938 76.390625 105.78125 98.121094l60.21875 15.050781-.019531.117187c25.25 4.351563 52.21875 6.710938 80.019531 6.710938s54.769531-2.359375 80.019531-6.710938l-.019531-.117187 60.21875-15.050781c63.320312-21.730469 105.78125-57.582032 105.78125-98.121094 0-40.148438-45.441406-75.699219-106-97.480469zm0 0" fill="#f2df33"/><path d="m396 479.480469c0-14.199219 0-424.058594 0-439.480469 0-16.570312-13.429688-30-30-30s-30 13.429688-30 30v56h-160v-56c0-16.570312-13.429688-30-30-30s-30 13.429688-30 30v439.480469l-.21875.640625c18.46875 6.339844 38.71875 11.46875 60.199219 15.167968l.019531-.117187v-53.171875h160v53.171875l.019531.117187c21.480469-3.699218 41.730469-8.828124 60.199219-15.167968zm-60-97.480469h-160c0-11.621094 0-69.761719 0-80h160zm0-140h-160v-86h160zm0 0" fill="#c6715a"/><path d="m126 362c0 5.523438-4.476562 10-10 10s-10-4.476562-10-10 4.476562-10 10-10 10 4.476562 10 10zm0 0"/><path d="m406 277.570312v-237.570312c0-22.054688-17.945312-40-40-40s-40 17.945312-40 40v46h-140v-46c0-22.054688-17.945312-40-40-40s-40 17.945312-40 40v237.570312c-47.449219 18.164063-106 53.640626-106 104.429688 0 77.226562 125.90625 130 256 130 134.054688 0 256-54.625 256-130 0-50.796875-58.566406-86.269531-106-104.429688zm-60-237.570312c0-11.027344 8.972656-20 20-20s20 8.972656 20 20v432.96875c-12.667969 4.035156-26.066406 7.460938-40 10.265625zm-20 252h-140v-40h140zm-140 20h140v60h-140zm140-80h-140v-66h140zm-140 160h140v40h-140zm140-286v40h-140v-40zm-306 276c0-29.855469 32.597656-60.960938 86-82.90625v22.90625c0 5.523438 4.476562 10 10 10s10-4.476562 10-10v-282c0-11.027344 8.972656-20 20-20s20 8.972656 20 20v443.238281c-13.933594-2.808593-27.332031-6.234375-40-10.269531v-70.96875c0-5.523438-4.476562-10-10-10s-10 4.476562-10 10v63.859375c-54.121094-21.277344-86-52.09375-86-83.859375zm166 104.773438v-34.773438h140v34.773438c-22.722656 3.464843-46.226562 5.226562-70 5.226562s-47.277344-1.765625-70-5.226562zm220-20.914063v-166.765625c53.402344 21.945312 86 53.050781 86 82.90625 0 31.765625-31.878906 62.582031-86 83.859375zm0 0"/></svg>