<svg height="512pt" viewBox="0 -6 512.00088 512" width="512pt" xmlns="http://www.w3.org/2000/svg"><path d="m210.359375 447.886719-1.503906 7.347656 1.449219-7.355469c-4.0625-.800781-8.007813 1.84375-8.808594 5.90625-.800782 4.066406 1.84375 8.007813 5.910156 8.808594.011719.003906.125.023438.136719.027344.476562.089844.949219.136718 1.417969.136718 3.527343 0 6.671874-2.5 7.355468-6.09375.78125-4.070312-1.886718-8-5.957031-8.777343zm0 0"/><path d="m267.703125 450.296875.746094 7.460937-.769531-7.457031c-4.121094.421875-7.117188 4.105469-6.691407 8.226563.394531 3.859375 3.652344 6.734375 7.449219 6.734375.257812 0 .519531-.015625.777344-.039063l.207031-.023437c4.101563-.480469 7.011719-4.179688 6.554687-8.28125-.460937-4.097657-4.171874-7.050781-8.273437-6.621094zm0 0"/><path d="m238.992188 451.242188s-.105469-.003907-.109376-.003907c-4.132812-.1875-7.585937 3.023438-7.773437 7.160157-.183594 4.136718 3.066406 7.640624 7.203125 7.828124.117188.007813.230469.007813.347656.007813 3.984375 0 7.304688-3.136719 7.484375-7.160156.1875-4.136719-3.011719-7.644531-7.152343-7.832031zm0 0"/><path d="m182.65625 440.265625-.09375-.035156c-3.898438-1.398438-8.148438.640625-9.546875 4.539062-1.402344 3.898438.667969 8.210938 4.566406 9.613281.839844.300782 1.695313.441407 2.535157.441407 3.074218 0 5.960937-1.902344 7.058593-4.964844 1.402344-3.898437-.621093-8.195313-4.519531-9.59375zm0 0"/><path d="m296.007812 445.046875 1.847657 7.269531-1.871094-7.261718c-4.011719 1.03125-6.425781 5.121093-5.394531 9.132812.871094 3.382812 3.917968 5.632812 7.257812 5.632812.621094 0 1.25-.078124 1.878906-.242187.03125-.007813.164063-.042969.199219-.050781 3.980469-1.085938 6.308594-5.175782 5.246094-9.164063-1.0625-3.984375-5.167969-6.355469-9.164063-5.316406zm0 0"/><path d="m323.121094 435.589844 2.972656 6.882812-2.996094-6.875c-3.796875 1.65625-5.535156 6.074219-3.882812 9.871094 1.230468 2.824219 3.988281 4.507812 6.882812 4.507812.996094 0 2.015625-.203124 2.988282-.625.03125-.015624.152343-.066406.183593-.082031 3.761719-1.699219 5.421875-6.105469 3.742188-9.875-1.679688-3.773437-6.109375-5.464843-9.890625-3.804687zm0 0"/><path d="m154.007812 93.699219c1.203126 0 2.425782-.289063 3.554688-.890625 3.65625-1.949219 5.035156-6.492188 3.085938-10.148438-1.949219-3.652344-6.488282-5.039062-10.144532-3.085937l-.089844.046875c-3.652343 1.949218-4.992187 6.46875-3.042968 10.125 1.34375 2.523437 3.953125 3.953125 6.636718 3.953125zm0 0"/><path d="m67.253906 177.46875c1.113282.582031 2.304688.859375 3.480469.859375 2.699219 0 5.308594-1.460937 6.648437-4.019531l.132813-.261719c1.828125-3.71875.296875-8.214844-3.421875-10.039063-3.691406-1.820312-8.152344-.320312-10.003906 3.347657-1.914063 3.664062-.5 8.191406 3.164062 10.113281zm0 0"/><path d="m56.695312 205.683594c.796876.269531 1.605469.398437 2.40625.398437 3.125 0 6.042969-1.972656 7.101563-5.097656l.097656-.296875c1.21875-3.957031-1.003906-8.15625-4.964843-9.371094-3.925782-1.210937-8.09375.96875-9.347657 4.875-1.316406 3.917969.789063 8.167969 4.707031 9.492188zm0 0"/><path d="m82.050781 151.230469c1.332031.96875 2.875 1.4375 4.40625 1.4375 2.316407 0 4.605469-1.074219 6.070313-3.089844l.097656-.132813c2.40625-3.367187 1.621094-8.039062-1.738281-10.445312-3.363281-2.410156-8.050781-1.636719-10.464844 1.722656l6.042969 4.445313-6.066406-4.414063c-2.4375 3.351563-1.695313 8.042969 1.652343 10.476563zm0 0"/><path d="m128.546875 109.898438c1.574219 0 3.160156-.496094 4.515625-1.527344 3.34375-2.445313 4.066406-7.136719 1.621094-10.480469-2.449219-3.34375-7.140625-4.066406-10.480469-1.621094l-.1875.136719c-3.296875 2.503906-3.953125 7.21875-1.449219 10.519531 1.476563 1.945313 3.714844 2.972657 5.980469 2.972657zm0 0"/><path d="m50 319.425781c.992188 3.222657 3.953125 5.289063 7.15625 5.289063.730469 0 1.476562-.109375 2.210938-.335938 3.9375-1.207031 6.160156-5.378906 4.980468-9.324218-1.128906-3.9375-5.210937-6.25-9.183594-5.167969-3.996093 1.089843-6.351562 5.214843-5.261718 9.210937.023437.078125.074218.25.097656.328125zm0 0"/><path d="m105.890625 129.664062c1.949219 0 3.898437-.753906 5.371094-2.253906 2.925781-2.929687 2.925781-7.679687 0-10.605468-2.929688-2.929688-7.679688-2.929688-10.609375 0l-.125.125c-2.898438 2.957031-2.839844 7.699218.117187 10.597656 1.457031 1.429687 3.351563 2.136718 5.246094 2.136718zm0 0"/><path d="m58.289062 286.726562c-.527343-4.074218-4.25-6.964843-8.328124-6.480468-4.109376.492187-7.046876 4.222656-6.558594 8.335937l.042968.300781c.546876 3.726563 3.746094 6.398438 7.40625 6.398438.359376 0 .726563-.027344 1.097657-.082031 4.082031-.59375 6.914062-4.390625 6.339843-8.472657zm0 0"/><path d="m48.867188 265.246094c.078124 0 .152343.003906.226562.003906 4.039062 0 7.375-3.214844 7.492188-7.28125l.007812-.320312c0-4.144532-3.359375-7.5-7.5-7.5-4.113281 0-7.449219 3.304687-7.5 7.402343-.109375 4.132813 3.144531 7.574219 7.273438 7.695313zm0 0"/><path d="m50.511719 235.167969c.449219.078125.890625.117187 1.332031.117187 3.5625 0 6.722656-2.550781 7.375-6.179687.019531-.109375.035156-.21875.050781-.328125.605469-4.097656-2.226562-7.910156-6.328125-8.511719-4.050781-.601563-7.84375 2.183594-8.496094 6.222656-.710937 4.070313 2 7.949219 6.066407 8.679688zm0 0"/><path d="m404.300781 153.597656c1.453125 2.109375 3.789063 3.238282 6.171875 3.238282 1.464844 0 2.949219-.429688 4.246094-1.324219 3.410156-2.34375 4.273438-7.015625 1.929688-10.429688l-6.234376 4.171875 6.210938-4.207031c-2.328125-3.429687-6.992188-4.324219-10.417969-2-3.429687 2.324219-4.324219 6.988281-2 10.417969zm0 0"/><path d="m442.601562 229.070312c-4.117187.460938-7.078124 4.175782-6.613281 8.292969l.039063.324219c.535156 3.738281 3.746094 6.4375 7.417968 6.4375.351563 0 .710938-.023438 1.070313-.074219 4.066406-.582031 6.902344-4.328125 6.375-8.390625-.472656-4.105468-4.199219-7.050781-8.289063-6.589844zm0 0"/><path d="m429.945312 207.90625.03125.097656c.960938 3.269532 3.949219 5.386719 7.191407 5.386719.699219 0 1.410156-.097656 2.117187-.308594 3.976563-1.167969 6.25-5.335937 5.082032-9.3125l-.03125-.097656c-1.167969-3.976563-5.335938-6.25-9.3125-5.078125-3.972657 1.167969-6.246094 5.335938-5.078126 9.3125zm0 0"/><path d="m419.351562 179.863281c1.308594 2.660157 3.984376 4.210938 6.765626 4.210938 1.105468 0 2.230468-.246094 3.289062-.769531 3.714844-1.828126 5.257812-6.296876 3.425781-10.015626l-6.796875 3.167969 6.789063-3.183593c-1.757813-3.75-6.222657-5.363282-9.972657-3.605469-3.75 1.757812-5.367187 6.222656-3.609374 9.972656zm0 0"/><path d="m385.410156 130.175781c1.46875 1.5 3.410156 2.25 5.355469 2.25 1.894531 0 3.789063-.710937 5.25-2.144531 2.9375-2.875 3.003906-7.574219.171875-10.535156-2.808594-3.027344-7.542969-3.210938-10.582031-.40625-3.042969 2.808594-3.230469 7.554687-.421875 10.597656zm0 0"/><path d="m445.039062 260.386719c-4.121093-.105469-7.570312 3.125-7.714843 7.246093-.1875 4.105469 2.964843 7.601563 7.074219 7.832032.144531.007812.28125.011718.425781.011718 3.949219 0 7.257812-3.089843 7.480469-7.085937l.011718-.308594c.117188-4.136719-3.140625-7.574219-7.277344-7.695312zm0 0"/><path d="m337.449219 93.347656.179687.097656c1.117188.59375 2.316406.875 3.496094.875 2.667969 0 5.25-1.4375 6.605469-3.957031 1.953125-3.636719.578125-8.183593-3.046875-10.152343l-3.628906 6.5625 3.605468-6.578126c-3.632812-1.992187-8.191406-.660156-10.183594 2.972657-1.988281 3.628906-.660156 8.191406 2.972657 10.179687zm0 0"/><path d="m362.816406 109.796875.117188.089844c1.355468 1.027343 2.945312 1.523437 4.527344 1.523437 2.265624 0 4.503906-1.023437 5.980468-2.96875 2.503906-3.300781 1.855469-8.003906-1.441406-10.507812l-.050781-.035156c-3.285157-2.523438-7.992188-1.90625-10.515625 1.378906-2.523438 3.285156-1.902344 7.996094 1.382812 10.519531zm0 0"/><path d="m507.371094 373.929688-35.207032-35.269532c-2.996093-3-6.976562-4.652344-11.214843-4.652344-4.234375 0-8.21875 1.652344-11.210938 4.652344l-.816406.816406-2.3125-2.3125c-2.855469-2.863281-5.066406-6.195312-6.566406-9.824218-.132813-.480469-.308594-.949219-.535157-1.390625-1.148437-3.226563-1.746093-6.660157-1.746093-10.1875v-9.976563c.683593.359375 1.429687.621094 2.230469.757813.429687.074219.855468.109375 1.277343.109375 3.558594 0 6.707031-2.539063 7.367188-6.148438.800781-4.054687-1.828125-7.996094-5.886719-8.808594-1.785156-.355468-3.550781-.046874-5.035156.757813-.460938-10.65625-4.816406-20.609375-12.394532-28.203125l-34.15625-34.214844c-7.664062-7.675781-17.855468-11.902344-28.695312-11.902344-8.390625 0-16.382812 2.542969-23.125 7.25l-3.625-3.644531v-85.78125c0-10.339843-3.753906-20.316406-10.566406-28.085937-4.847656-5.523438-7.515625-12.617188-7.515625-19.976563v-6.285156h.515625c8.742187 0 15.855468-7.113281 15.855468-15.859375v-49.890625c0-8.746094-7.113281-15.859375-15.855468-15.859375h-140.097656c-8.742188 0-15.855469 7.113281-15.855469 15.859375v49.890625c0 8.746094 7.113281 15.859375 15.855469 15.859375h1.15625v3.289063c0 8.085937-3.144532 15.6875-8.851563 21.402343l-15.121094 15.148438c-8.023437 8.039062-12.441406 18.722656-12.441406 30.089843v48.386719c0 6.574219 1.578125 12.78125 4.355469 18.28125-9.945313.574219-19.214844 4.71875-26.316406 11.828125l-34.15625 34.214844c-8.023438 8.039062-12.441407 18.726562-12.441407 30.089844v21.421875c0 8.085937-3.140625 15.6875-8.847656 21.402343l-2.285156 2.289063c-.011719.007813-.019531.015625-.027344.023437l-.8125-.816406c-2.996094-3-6.976563-4.652344-11.214844-4.652344-4.234375 0-8.21875 1.652344-11.210937 4.652344l-35.210938 35.269532c-6.171875 6.183593-6.171875 16.246093 0 22.429687l12.058594 12.074219c2.925781 2.933594 7.675781 2.9375 10.605469.011718 2.929687-2.929687 2.9375-7.675781.007812-10.609374l-12.054687-12.078126c-.339844-.339843-.339844-.890624 0-1.230468l35.210937-35.269532c.328125-.328124.863281-.332031 1.191407 0l6.121093 6.132813h.003907l83.582031 83.726563 9.363281 9.382812c.339844.339844.339844.890625 0 1.230469l-35.207031 35.269531c-.332031.332031-.867188.332031-1.195313 0l-65.78125-65.894531c-2.925781-2.933594-7.675781-2.9375-10.605468-.011719-2.933594 2.929688-2.9375 7.675781-.011719 10.609375l65.785156 65.894531c2.992187 3 6.976563 4.652344 11.214844 4.652344 4.234375 0 8.214843-1.652344 11.210937-4.652344l35.207032-35.269531c6.171874-6.179687 6.171874-16.242187 0-22.425781l-.382813-.382813 4.441406-4.449219c5.1875-5.199218 12.078125-8.324218 19.402344-8.796874 10.308594-.667969 20.007813-5.066407 27.308594-12.382813l32.34375-32.414063c9.328125-2.449218 16.589843-10.046874 18.5625-19.5625 3.324219 1.582032 7.039062 2.472657 10.960937 2.472657 14.105469 0 25.582032-11.488281 25.582032-25.613281v-17.808594c3.226562 1.472656 6.808593 2.300781 10.582031 2.300781 14.105469 0 25.578125-11.488281 25.578125-25.613281v-52.648438l23.070312 23.183594c1.464844 1.472656 3.390625 2.207031 5.316406 2.207031 1.914063 0 3.828126-.726562 5.292969-2.183593 2.933594-2.921876 2.945313-7.667969.023438-10.605469l-19.234375-19.328125c3.722656-2.050782 7.917968-3.144532 12.285156-3.144532 6.828125 0 13.25 2.664063 18.078125 7.503907l34.15625 34.210937c5.195313 5.207032 8.058594 12.128906 8.058594 19.492188v21.421875c0 12.089843 4.699219 23.453125 13.230469 32l2.328124 2.332031-10.878906 10.898438-65.796875 65.910156-3.667969-3.675782c-.039062-.035156-.074218-.074218-.113281-.109374l-.644531-.648438c-7.765625-7.777344-18.082031-12.453125-29.042969-13.164062-6.667969-.433594-12.941406-3.277344-17.6875-8.027344l-24.644531-24.511719c-2.9375-2.921875-7.6875-2.910156-10.609375.027344-2.917969 2.9375-2.90625 7.6875.03125 10.605469l24.628906 24.492187c7.300781 7.316406 17 11.714844 27.3125 12.382813 7.320313.472656 14.210938 3.597656 19.398438 8.792968l.363281.363282c.195312.222656.402344.429687.621094.625l3.457031 3.460937-.382813.386719c-6.171874 6.183594-6.171874 16.242187 0 22.425781l35.207032 35.269531c2.996094 3 6.976562 4.652344 11.214844 4.652344 4.234374 0 8.21875-1.652344 11.214843-4.652344l99.070313-99.242187c6.171875-6.183594 6.171875-16.242188 0-22.425781zm-64.582032-74.578126-.140624-.023437-1.367188-.277344zm-241.300781 101.941407c-4.722656 4.734375-10.996093 7.578125-17.660156 8.011719-10.964844.710937-21.28125 5.386718-29.046875 13.164062l-4.425781 4.433594-3.984375-3.992188c-.050782-.050781-.101563-.105468-.152344-.152344l-72.539062-72.664062 2.328124-2.332031c8.53125-8.546875 13.230469-19.910157 13.230469-32v-21.421875c0-7.363282 2.859375-14.285156 8.058594-19.492188l34.15625-34.210937c4.828125-4.839844 11.25-7.503907 18.078125-7.503907 4.378906 0 8.589844 1.101563 12.324219 3.167969l-19.265625 19.296875c-2.925782 2.929688-2.921875 7.679688.007812 10.605469 1.464844 1.460937 3.382813 2.191406 5.300782 2.191406 1.921874 0 3.84375-.734375 5.308593-2.199219l23.011719-23.054687v93.632813c0 14.125 11.476562 25.613281 25.582031 25.613281 3.976563 0 7.742188-.914063 11.101563-2.539063 1.523437 7.433594 6.273437 13.699219 12.710937 17.269532zm119.230469-105.636719c0 5.851562-4.75 10.613281-10.582031 10.613281-5.835938 0-10.582031-4.761719-10.582031-10.613281v-83.660156c0-4.140625-3.355469-7.5-7.5-7.5-4.144532 0-7.5 3.359375-7.5 7.5v124.78125c0 5.851562-4.746094 10.609375-10.582032 10.609375-5.238281 0-9.585937-3.835938-10.425781-8.855469v-126.621094c0-4.144531-3.355469-7.5-7.5-7.5-1.332031 0-2.585937.351563-3.671875.960938-2.371094 1.261718-3.984375 3.753906-3.984375 6.625v124.777344c0 .953124.054687 1.886718.15625 2.8125v15.113281c0 5.851562-4.746094 10.613281-10.582031 10.613281-5.832032 0-10.578125-4.761719-10.578125-10.613281v-142.878907c0-4.140624-3.359375-7.5-7.5-7.5-4.144531 0-7.503907 3.359376-7.503907 7.5v124.953126c0 5.851562-4.746093 10.613281-10.578124 10.613281-5.835938 0-10.582032-4.761719-10.582032-10.613281v-139.511719c0-4.144531-3.359375-7.503907-7.5-7.503907-4.144531 0-7.5 3.359376-7.5 7.503907v25.804687c-.628906.203125-1.238281.488282-1.804687.863282-9.699219-3.644532-16.621094-13.027344-16.621094-24.003907v-48.386719c0-7.363281 2.863281-14.285156 8.058594-19.492187l15.121093-15.148437c8.535157-8.546876 13.234376-19.910157 13.234376-32v-3.289063h15.078124c4.144532 0 7.5-3.359375 7.5-7.5 0-4.144531-3.355468-7.5-7.5-7.5h-31.234374c-.472657 0-.855469-.386719-.855469-.859375v-49.890625c0-.472656.382812-.859375.855469-.859375h140.09375c.476562 0 .859374.386719.859374.859375v49.890625c0 .476562-.382812.859375-.859374.859375h-73.648438c-4.140625 0-7.5 3.355469-7.5 7.5 0 4.140625 3.359375 7.5 7.5 7.5h58.136719v6.285156c0 11 3.988281 21.605469 11.234375 29.871094 4.414062 5.03125 6.847656 11.492187 6.847656 18.191406zm176.035156 90.101562-99.070312 99.242188c-.164063.167969-.363282.25-.597656.25-.230469 0-.429688-.082031-.597657-.25l-35.207031-35.269531c-.339844-.339844-.339844-.890625 0-1.230469l5.667969-5.679688s.003906-.003906.003906-.003906l57.511719-57.609375 35.886718-35.949219c.328126-.332031.863282-.332031 1.191407 0l35.210937 35.269532c.339844.339844.339844.890625 0 1.230468zm0 0"/><path d="m201.800781 32.804688c-4.402343 0-7.984375 3.589843-7.984375 8 0 4.414062 3.582032 8 7.984375 8 4.40625 0 7.988281-3.585938 7.988281-8 0-4.410157-3.582031-8-7.988281-8zm0 0"/><path d="m463.402344 374.6875c-4.40625 0-7.988282 3.589844-7.988282 8s3.582032 8 7.988282 8c4.402344 0 7.984375-3.589844 7.984375-8s-3.582031-8-7.984375-8zm0 0"/><path d="m124.984375 451.203125c0-4.410156-3.582031-8-7.984375-8-4.40625 0-7.988281 3.589844-7.988281 8s3.582031 8 7.988281 8c4.402344 0 7.984375-3.589844 7.984375-8zm0 0"/></svg>