<svg id="Capa_1" enable-background="new 0 0 512 512" height="512" viewBox="0 0 512 512" width="512" xmlns="http://www.w3.org/2000/svg"><path d="m473.044 67.744c-6.363-5.303-15.822-4.444-21.126 1.92l-15.639 18.766c-4.305-2.168-9.093-3.328-13.978-3.328-9.229 0-17.91 4.038-23.818 11.079l-10.328 12.309c-9.499 11.323-9.515 27.489-.913 38.784l-34.449 41.339-32.16-160.798c-3.117-15.597-18.019-27.815-33.926-27.815h-128.533c-15.906 0-30.808 12.218-33.925 27.813l-67.515 337.575c-.009.041-.017.083-.025.124l-22.559 112.794c-1.71 8.553.332 17.146 5.604 23.576 5.271 6.43 13.297 10.118 22.021 10.118h321.333c8.724 0 16.75-3.688 22.022-10.118 5.271-6.43 7.313-15.023 5.603-23.577l-22.563-112.811c-.006-.031-.012-.061-.018-.092l-27.8-138.998 49.914-59.897c4.305 2.167 9.092 3.327 13.976 3.327 9.229 0 17.91-4.038 23.816-11.076l10.333-12.309c5.322-6.343 7.855-14.396 7.13-22.676-.521-5.952-2.685-11.49-6.215-16.115l15.657-18.788c5.304-6.364 4.445-15.823-1.919-21.126zm-319.378-34.049c.332-1.658 2.817-3.695 4.508-3.695h128.533c1.691 0 4.177 2.038 4.509 3.697l36.903 184.524-90.679 108.814v-59.249h17.134c8.284 0 15-6.716 15-15s-6.716-15-15-15h-17.134v-27.84h17.134c8.284 0 15-6.716 15-15s-6.716-15-15-15h-17.134v-27.84h17.134c8.284 0 15-6.716 15-15s-6.716-15-15-15h-17.134v-27.839h17.134c8.284 0 15-6.716 15-15s-6.716-15-15-15h-64.267c-8.284 0-15 6.716-15 15s6.716 15 15 15h17.133v27.841h-17.133c-8.284 0-15 6.716-15 15s6.716 15 15 15h17.133v27.84h-17.133c-8.284 0-15 6.716-15 15s6.716 15 15 15h17.133v27.84h-17.133c-8.284 0-15 6.716-15 15s6.716 15 15 15h17.133v85.68h-117.728zm-89.66 448.301 19.705-98.529h138.709c.004 0 .008.001.012.001.003 0 .006-.001.009-.001h138.726l19.706 98.533zm291.161-128.529h-100.701l81.212-97.454zm80.245-226.305-10.333 12.31c-.264.315-.637.362-.836.362-.389 0-.596-.173-.664-.231l-12.308-10.329c-.42-.352-.483-1.083-.131-1.503l10.327-12.308c.264-.315.637-.362.836-.362.389 0 .595.173.668.234l6.126 5.139s.001 0 .001.001h.001l6.18 5.184c.21.176.331.421.357.727s-.049.568-.224.776z"/></svg>