<?xml version="1.0" encoding="UTF-8" standalone="no"?>
<!-- Created with Inkscape (http://www.inkscape.org/) -->
<svg
   xmlns:dc="http://purl.org/dc/elements/1.1/"
   xmlns:cc="http://creativecommons.org/ns#"
   xmlns:rdf="http://www.w3.org/1999/02/22-rdf-syntax-ns#"
   xmlns:svg="http://www.w3.org/2000/svg"
   xmlns="http://www.w3.org/2000/svg"
   xmlns:xlink="http://www.w3.org/1999/xlink"
   xmlns:sodipodi="http://sodipodi.sourceforge.net/DTD/sodipodi-0.dtd"
   xmlns:inkscape="http://www.inkscape.org/namespaces/inkscape"
   height="437.5"
   id="svg1"
   inkscape:version="0.46"
   sodipodi:docbase="/usr/share/icons/Lemon/scalable/apps"
   sodipodi:docname="welcome_news.svg"
   sodipodi:version="0.32"
   version="1.0"
   width="437.5"
   x="0"
   y="0"
   inkscape:output_extension="org.inkscape.output.svg.inkscape"
   inkscape:export-filename="/media/sdb1/usr/Desarrollo_wx/lenmus/res/icons/welcome_news.png"
   inkscape:export-xdpi="9.8083467"
   inkscape:export-ydpi="9.8083467">
  <metadata
     id="metadata4197">
    <rdf:RDF>
      <cc:Work
         rdf:about="">
        <dc:title>Lemon SVG theme</dc:title>
        <dc:description />
        <dc:subject>
          <rdf:Bag>
            <rdf:li>icon</rdf:li>
            <rdf:li />
            <rdf:li>application</rdf:li>
            <rdf:li>lemon_theme_icon</rdf:li>
            <rdf:li>icons</rdf:li>
            <rdf:li>hash</rdf:li>
            <rdf:li>computer</rdf:li>
            <rdf:li>theme</rdf:li>
          </rdf:Bag>
        </dc:subject>
        <dc:publisher>
          <cc:Agent
             rdf:about="http://www.openclipart.org">
            <dc:title>Jose Hevia</dc:title>
          </cc:Agent>
        </dc:publisher>
        <dc:creator>
          <cc:Agent>
            <dc:title>Jose Hevia</dc:title>
          </cc:Agent>
        </dc:creator>
        <dc:rights>
          <cc:Agent>
            <dc:title>Jose Hevia</dc:title>
          </cc:Agent>
        </dc:rights>
        <dc:date />
        <dc:format>image/svg+xml</dc:format>
        <dc:type
           rdf:resource="http://purl.org/dc/dcmitype/StillImage" />
        <cc:license
           rdf:resource="http://web.resource.org/cc/PublicDomain" />
        <dc:language>en</dc:language>
      </cc:Work>
      <cc:License
         rdf:about="http://web.resource.org/cc/PublicDomain">
        <cc:permits
           rdf:resource="http://web.resource.org/cc/Reproduction" />
        <cc:permits
           rdf:resource="http://web.resource.org/cc/Distribution" />
        <cc:permits
           rdf:resource="http://web.resource.org/cc/DerivativeWorks" />
      </cc:License>
    </rdf:RDF>
  </metadata>
  <sodipodi:namedview
     id="base"
     inkscape:cx="195.9551"
     inkscape:cy="174.99986"
     inkscape:window-height="668"
     inkscape:window-width="987"
     inkscape:window-x="33"
     inkscape:window-y="46"
     inkscape:zoom="0.87142856"
     showgrid="false"
     inkscape:current-layer="svg1" />
  <defs
     id="defs3">
    <inkscape:perspective
       sodipodi:type="inkscape:persp3d"
       inkscape:vp_x="0 : 218.75 : 1"
       inkscape:vp_y="0 : 1000 : 0"
       inkscape:vp_z="437.5 : 218.75 : 1"
       inkscape:persp3d-origin="218.75 : 145.83333 : 1"
       id="perspective4224" />
    <linearGradient
       id="linearGradient120">
      <stop
         id="stop121"
         offset="0"
         style="stop-color:#fa7d00;stop-opacity:1;" />
      <stop
         id="stop122"
         offset="1"
         style="stop-color:#ffff1d;stop-opacity:1;" />
    </linearGradient>
    <linearGradient
       id="linearGradient53">
      <stop
         id="stop54"
         offset="0"
         style="stop-color:#faff00;stop-opacity:1;" />
      <stop
         id="stop55"
         offset="1"
         style="stop-color:#ff6f00;stop-opacity:1;" />
    </linearGradient>
    <linearGradient
       id="linearGradient48">
      <stop
         id="stop49"
         offset="0"
         style="stop-color:#000000;stop-opacity:0.2392;" />
      <stop
         id="stop50"
         offset="1"
         style="stop-color:#000000;stop-opacity:0.2706;" />
    </linearGradient>
    <linearGradient
       id="linearGradient51"
       x1="0.42902401"
       x2="0.45741299"
       xlink:href="#linearGradient120"
       y1="0.90279001"
       y2="-5.55555597e-2" />
    <linearGradient
       id="linearGradient52"
       x1="0.505153"
       x2="0.51546401"
       xlink:href="#linearGradient53"
       y1="0.55468702"
       y2="1.09375" />
    <linearGradient
       gradientTransform="scale(1.000012,0.999988)"
       id="linearGradient119"
       x1="9.91665572e-2"
       x2="1.02478099"
       xlink:href="#linearGradient120"
       y1="0.382815"
       y2="0.42188001" />
    <radialGradient
       id="radialGradient642"
       xlink:href="#linearGradient120" />
    <radialGradient
       cx="0.466667"
       cy="0.47656199"
       fx="0.466667"
       fy="0.47656199"
       id="radialGradient643"
       r="0.89559299"
       xlink:href="#linearGradient120" />
  </defs>
  <path
     d="M 371.9653 312.1577 C 353.8544 293.8699 252.4711 233.3063 223.8614 232.3736 C 192.3411 234.8518 74.43723 308.0029 61.07307 307.9375 C 67.40343 278.1612 108.6835 262.8821 126.1583 226.1111 C 56.41455 220.2885 13.5086 140.9243 9.023225 137.7204 C 17.56658 138.4971 123.3232 137.9416 115.9364 130.6867 C 100.4883 122.9626 35.75622 48.15404 38.56503 46.28152 C 52.99616 58.08885 175.369 81.41763 180.6469 82.8571 C 181.7755 70.44297 226.8394 14.6803 228.4765 9.223224 C 237.5273 37.16264 265.7259 82.84024 270.6791 85.67063 C 277.6178 81.70564 364.8024 23.77347 373.372 23.77347 C 381.9176 20.5689 310.1961 118.6287 301.6276 132.0934 C 299.5979 135.9273 307.2815 135.4026 312.8816 132.0934 C 335.2876 126.8214 397.4777 104.8877 412.761 101.1448 C 409.1927 103.1839 344.4626 197.4559 342.4235 201.0243 C 317.9965 213.4772 365.8693 279.8024 371.9653 312.1577 z "
     id="path584"
     style="font-size:12;fill:url(#radialGradient642);fill-opacity:1;fill-rule:evenodd;stroke-width:6.25;" />
  <path
     d="M 336.3549 198.2486 C 336.3549 241.445 277.398 285.7901 278.7327 331.9851 C 280.3175 388.4909 247.2866 424.1123 218.3892 423.289 C 170.9621 423.289 162.1002 389.3143 161.4696 334.6609 C 160.9282 289.1345 99.15519 235.818 99.15519 192.6217 C 99.15519 106.2293 154.1494 65.97612 220.0005 65.97612 C 285.8516 65.97612 336.3549 111.8565 336.3549 198.2486 z "
     id="path583"
     style="font-size:12;fill:#ffffff;fill-opacity:1;fill-rule:evenodd;" />
  <path
     d="M 181.2357 399.2763 C 189.246 400.8997 230.6511 404.0086 251.7525 399.5323 C 246.2639 403.5481 230.7778 419.3268 216.1655 418.332 C 206.2118 418.1157 185.5736 406.4263 181.2357 399.2763 z "
     id="path585"
     style="font-size:12;fill:url(#linearGradient51);fill-opacity:1;fill-rule:evenodd;stroke-width:1;" />
  <path
     d="M 189.5137 344.4399 C 196.9877 341.6247 237.3743 326.4218 255.7611 319.4869 C 269.5132 315.0555 265.1549 296.8154 249.0992 301.8001 C 229.7345 309.0941 194.0628 322.5304 179.7941 327.9049 C 173.9603 330.1022 176.1614 349.4241 189.5137 344.4399 z "
     id="path582"
     style="font-size:12;fill:none;fill-opacity:1;fill-rule:evenodd;stroke:#000000;stroke-width:1.04636;" />
  <path
     d="M 255.0577 390.80802 C 268.8098 383.05741 270.0785 349.92483 254.0228 358.64335 C 234.6581 371.40054 207.4416 388.81134 193.1729 398.2118 C 202.2599 400.31483 236.6709 402.93731 255.0577 390.80802 z "
     id="path587"
     style="font-size:12;fill:#ffe500;fill-rule:evenodd;stroke:#004f00;stroke-width:7.53466;" />
  <path
     d="M 322.5285 194.3572 C 322.5285 233.0343 270.4697 272.7398 271.6483 314.1018 C 273.0476 364.6956 168.6618 365.433 168.105 316.4977 C 167.6268 275.7345 113.0815 227.996 113.0815 189.319 C 113.0815 111.9652 161.6413 75.92349 219.7876 75.92349 C 277.9341 75.92349 322.5285 117.0038 322.5285 194.3572 z "
     id="path589"
     style="font-size:12;fill:url(#linearGradient52);fill-opacity:1;fill-rule:evenodd;stroke:#0d9152;stroke-opacity:1;stroke-width:7.50000000000000000;stroke-miterlimit:4;stroke-dasharray:none" />
  <path
     d="M 191.6238 388.93325 C 199.0978 384.0094 239.4844 357.41939 257.8712 345.2901 C 271.6233 337.53949 267.265 305.63717 251.2093 314.35552 C 231.8446 327.11288 196.1729 350.61325 181.9042 360.01336 C 176.0704 363.85648 178.2715 397.65072 191.6238 388.93325 z "
     id="path586"
     style="font-size:12;fill:#ffde00;fill-rule:evenodd;stroke:#006000;stroke-width:8.26566;" />
  <path
     d="M 185.96907 351.51744 C 193.44307 346.5936 213.43777 332.18201 231.82457 320.05273 C 245.57667 312.30212 190.51817 313.19727 176.24947 322.59738 C 170.41567 326.4405 172.61677 360.23491 185.96907 351.51744 z "
     id="path590"
     style="font-size:12;fill:#ffd600;fill-rule:evenodd;stroke:#005800;stroke-width:8.26566;" />
  <path
     d="M 281.97332 175.81253 C 281.97332 195.96855 268.34122 212.32706 251.54454 212.32706 C 234.74786 212.32706 241.40161 195.96855 241.40161 175.81253 C 241.40161 155.65651 234.74786 139.298 251.54454 139.298 C 268.34122 139.298 281.97332 155.65651 281.97332 175.81253 z "
     id="path599"
     sodipodi:nodetypes="ccccc"
     style="font-size:12;fill:#ffffff;fill-opacity:1;fill-rule:evenodd;stroke-width:1pt;"
     transform="translate(0.000000,-26.37161)" />
</svg>
