/* XPM */
static char *null_xpm[] = {
/* columns rows colors chars-per-pixel */
"16 16 4 1",
"  c None",
". c Black",
"X c #808080",
"o c #000080",
/* pixels */
"                ",
"                ",
"  XXX           ",
"                ",
"  XXX           ",
"                ",
"  XXX           ",
"                ",
"  XXX           ",
"                ",
"  XXX           ",
"                ",
"  XXX           ",
"                ",
"                ",
"                "
};
